PathFileType  4	(X/Y/Z) C:\Users\antoi\Documents\MyRepositories\mobilecap\ResultsAnalysis
DataRate	CameraRate	NumFrames	NumMarkers	Units	OrigDataRate	OrigDataStartFrame	OrigNumFrames
100.0	100.0	4	51	mm	100.0	1140	1302
Frame#	Time	r_knee			r_shank_antsup			r_ankle			r_calc			r_5meta			r_toe			L_knee			L_shank_antsup			L_ankle			L_calc			L_5meta			L_toe			r_sh2			r_sh3			r_sh4			L_sh2			L_sh3			r_thigh1			r_thigh2			r_thigh3			r_thigh4			r_thigh5			L_thigh1			L_thigh2			L_thigh3			L_thigh4			r.ASIS			r.PSIS			L.ASIS			L.PSIS			C7			R_Shoulder			L_Shoulder			R_Sternum			L_Sternum			R_humerus			R_elbow_med			R_elbow_lat			R_forearm			R_wrist_radius			R_wrist_ulna			L_humerus			L_elbow_med			L_elbow_lat			L_forearm			L_wrist_radius			L_wrist_ulna			R_HJC			L_HJC			R_HJC_reg			L_HJC_reg			
		X1	Y1	Z1	X2	Y2	Z2	X3	Y3	Z3	X4	Y4	Z4	X5	Y5	Z5	X6	Y6	Z6	X7	Y7	Z7	X8	Y8	Z8	X9	Y9	Z9	X10	Y10	Z10	X11	Y11	Z11	X12	Y12	Z12	X13	Y13	Z13	X14	Y14	Z14	X15	Y15	Z15	X16	Y16	Z16	X17	Y17	Z17	X18	Y18	Z18	X19	Y19	Z19	X20	Y20	Z20	X21	Y21	Z21	X22	Y22	Z22	X23	Y23	Z23	X24	Y24	Z24	X25	Y25	Z25	X26	Y26	Z26	X27	Y27	Z27	X28	Y28	Z28	X29	Y29	Z29	X30	Y30	Z30	X31	Y31	Z31	X32	Y32	Z32	X33	Y33	Z33	X34	Y34	Z34	X35	Y35	Z35	X36	Y36	Z36	X37	Y37	Z37	X38	Y38	Z38	X39	Y39	Z39	X40	Y40	Z40	X41	Y41	Z41	X42	Y42	Z42	X43	Y43	Z43	X44	Y44	Z44	X45	Y45	Z45	X46	Y46	Z46	X47	Y47	Z47	X48	Y48	Z48	X49	Y49	Z49	X50	Y50	Z50	X51	Y51	Z51	

1140	11.39000000	-152.62731	465.60659	-428.48910	-96.97978	391.71668	-428.57820	-266.45995	97.20081	-422.04643	-338.42048	63.40663	-454.05224	-168.06256	45.63117	-382.85888	-120.89576	73.74837	-436.57299	-161.56823	462.18559	-962.29339	-113.73323	374.52508	-985.82840	-263.09271	99.69579	-981.41936	-332.69989	62.24783	-939.91605	-160.62698	43.59570	-1022.98577	-120.70490	69.45050	-968.60791	-157.35128	294.04297	-406.35107	-166.99383	428.91345	-409.28053	-221.63671	331.11629	-401.26648	-196.84336	409.01299	-979.00210	-236.51213	293.44687	-993.91231	-414.23425	628.24227	-495.84453	-313.96781	582.05105	-471.68252	-324.98365	525.52991	-433.91882	-466.77416	531.12841	-470.12405	-359.74723	483.31026	-447.97696	-407.94198	577.03397	-934.46169	-275.94040	544.20846	-949.21402	-435.92051	468.05080	-901.04141	-299.93453	440.05925	-931.39124	-381.41920	624.79435	-586.18762	-518.54519	715.94334	-654.35274	-374.53116	610.46141	-804.15614	-519.76557	720.74278	-741.78261	-149.94500	913.60659	-707.53614	-41.68953	874.40532	-595.63422	-56.85617	876.56741	-831.02391	-55.26511	791.94388	-686.61088	-50.44477	791.24728	-724.73433	21.00511	851.57924	-498.62258	144.59166	682.60959	-431.14666	151.71801	750.34795	-387.38364	219.88472	816.69782	-489.55137	282.24810	867.28471	-589.07221	315.88023	860.31937	-579.86330	-3.92081	851.93894	-911.97824	139.89767	675.58661	-981.11028	133.47632	748.86560	-1021.26983	188.21930	805.68452	-944.82936	279.74502	873.34234	-851.58743	307.66361	871.19762	-871.70109	-470.48492	571.96750	-591.99519	-467.82890	567.80863	-798.40713	-461.51222	576.71343	-616.70436	-463.52202	584.61895	-760.71487	
1141	11.40000000	-151.19080	464.61690	-427.84137	-95.48300	390.82042	-427.79088	-266.25565	97.30293	-421.98463	-338.37574	63.39020	-454.22508	-168.09424	45.58618	-382.78607	-120.83341	73.61303	-436.46829	-160.21335	461.28860	-962.95388	-112.43137	373.84002	-986.46003	-263.00714	99.53286	-981.18544	-332.58562	62.29042	-939.82430	-160.66304	43.43235	-1023.09662	-120.64240	69.18351	-968.75608	-156.24784	293.29837	-406.02776	-165.89261	429.12984	-408.52494	-220.43997	330.87057	-400.90783	-195.26342	408.76805	-979.67626	-235.53804	293.06296	-994.08485	-414.40833	623.36551	-496.29915	-313.81980	578.60397	-471.43182	-324.25278	522.10352	-433.58774	-465.96180	525.73499	-469.94539	-358.46515	479.37835	-447.56468	-407.72115	572.88215	-933.81196	-275.38701	542.45809	-950.35435	-434.62184	463.25469	-901.23406	-298.33483	437.21023	-931.86609	-381.43239	621.50341	-586.35937	-519.17428	709.78787	-653.96068	-374.39583	607.37599	-803.92370	-520.51039	714.61232	-741.45988	-149.51600	907.31818	-707.12905	-41.76849	868.13665	-594.82380	-56.49120	870.24361	-830.18205	-55.32544	785.44127	-685.93993	-50.42349	784.65718	-724.28147	20.82254	845.30033	-498.22619	144.44195	676.35783	-430.05862	151.25786	744.39287	-386.59923	219.38693	810.66735	-488.62872	281.66478	861.15432	-588.36193	315.33704	854.22549	-579.03211	-3.17065	845.92990	-910.65276	141.05794	669.91380	-979.27392	134.64834	743.06595	-1019.55134	188.96584	800.31402	-943.10436	280.28449	868.15057	-849.91422	308.31071	865.99936	-870.06836	-469.11788	566.88008	-591.85125	-466.57801	562.91049	-798.26832	-460.43849	572.07226	-616.80139	-462.63355	579.99744	-760.53619	
1142	11.41000000	-149.89519	463.72111	-426.77515	-94.09556	390.00289	-426.63538	-266.08268	97.21831	-422.12415	-338.30568	63.39880	-454.30600	-168.13607	45.53940	-382.72477	-120.79255	73.51129	-436.37801	-158.86233	460.49725	-963.68734	-111.29679	373.06514	-986.99227	-263.12024	99.06388	-980.79375	-332.48930	62.34933	-939.77800	-160.68635	43.25709	-1023.20820	-120.54576	68.88177	-968.84947	-155.34336	292.83832	-405.05285	-164.74097	429.12476	-407.48824	-219.45590	330.68360	-400.28042	-193.67915	408.72884	-980.56426	-234.51352	292.89604	-994.83029	-414.64228	618.63477	-496.49707	-313.66420	575.30967	-471.00987	-323.54565	518.70871	-433.09229	-465.24002	520.54575	-469.80511	-357.21480	475.53853	-447.07235	-408.20098	569.26006	-934.64994	-274.82647	540.79883	-951.31625	-433.29366	458.71673	-901.60670	-296.72313	434.68946	-932.81454	-381.41229	618.35393	-586.52314	-519.87586	703.66413	-653.56684	-374.23185	604.44343	-803.71923	-521.19529	708.59049	-741.16362	-149.05677	901.04590	-706.78939	-41.92416	861.91255	-594.08741	-56.20377	864.11252	-829.28513	-55.32665	778.84189	-685.04038	-50.46522	778.37089	-723.65929	20.53274	839.22895	-497.74447	144.32022	670.22563	-429.10460	150.73979	738.65546	-385.67319	218.88391	804.76175	-487.69996	281.04557	855.14205	-587.66246	314.76924	848.34414	-578.20001	-2.47682	840.08464	-909.51682	142.18552	664.26669	-977.43576	135.67441	737.32566	-1017.76418	189.85084	794.80394	-941.34669	280.77904	863.07363	-848.39709	308.85190	860.93702	-868.44976	-467.67940	561.89956	-591.73802	-465.22879	558.15226	-798.16030	-459.37088	567.37996	-617.07375	-461.53239	575.44871	-760.55195	
1143	11.42000000	-148.74320	462.82728	-425.49954	-92.79391	389.20807	-425.29343	-265.97025	97.14317	-422.21880	-338.25072	63.41949	-454.34398	-168.16877	45.50522	-382.63008	-120.77393	73.44344	-436.30378	-157.65979	459.77634	-964.57495	-110.25462	372.40571	-987.77400	-263.34556	98.58767	-980.49999	-332.44833	62.37169	-939.74208	-160.70326	43.12909	-1023.31939	-120.43218	68.63136	-968.92098	-154.53634	292.37957	-403.87144	-162.81572	427.80271	-406.32014	-218.47343	330.24691	-399.45683	-192.42132	408.59492	-981.53526	-233.61225	292.75167	-995.61028	-415.16913	614.18893	-496.12434	-313.71085	572.09815	-470.58069	-322.88684	515.45250	-432.45663	-464.60958	515.54539	-469.65549	-356.06620	471.77767	-446.46312	-408.72131	565.48656	-935.51732	-274.53922	538.73737	-951.58237	-432.02752	454.40853	-902.01463	-295.17681	432.30067	-933.88814	-381.35941	615.34830	-586.67846	-520.60359	697.56786	-653.27390	-374.04037	601.66552	-803.54195	-521.90717	702.66814	-740.95262	-148.80462	894.98894	-706.37893	-42.02760	855.68857	-593.79013	-55.88648	858.21336	-828.27748	-55.29123	772.38907	-684.11163	-50.42184	772.18636	-723.20329	20.10273	833.38324	-497.20023	143.90943	664.55192	-428.12398	150.23434	732.96561	-384.70483	218.34327	799.00190	-486.84263	280.40961	849.29533	-586.80746	314.17399	842.59142	-577.43928	-2.02102	834.30759	-908.53351	143.20047	658.67812	-975.67565	136.59272	731.70156	-1016.10558	190.61116	789.35302	-939.53383	281.19722	858.14008	-846.98433	309.30270	855.98174	-866.88741	-466.17536	557.04565	-591.67701	-463.77193	553.51379	-798.10372	-458.20307	562.67984	-617.39013	-460.33279	571.01176	-760.62783	
